<?xml version="1.0" encoding="UTF-8" standalone="no"?>
<!DOCTYPE svg  PUBLIC '-//W3C//DTD SVG 1.1//EN'  'http://www.w3.org/Graphics/SVG/1.1/DTD/svg11.dtd'>
<svg xmlns="http://www.w3.org/2000/svg">
<defs>
<font id="PierSans-Regular" horiz-adv-x="500">
<font-face underline-position="0" font-weight="400" descent="-200" panose-1="0 0 0 0 0 0 0 0 0 0" units-per-em="1000" unicode-range="U+0020-2212" bbox="-30 -276 1030 996" x-height="494" underline-thickness="0" font-family="PierSans" ascent="800" cap-height="750"/>
<missing-glyph horiz-adv-x="1000"/>
<glyph glyph-name=".notdef" horiz-adv-x="1000"/>
<glyph glyph-name=".null" horiz-adv-x="0"/>
<glyph glyph-name="nonmarkingreturn" horiz-adv-x="333"/>
<glyph glyph-name="space" horiz-adv-x="300" unicode=" "/>
<glyph glyph-name="exclam" horiz-adv-x="323" unicode="!" d="M218 37q0 -24 -16.5 -40.5t-40.5 -16.5q-23 0 -39.5 16.5t-16.5 40.5q0 23 16.5 39.5t39.5 16.5q24 0 40.5 -16.5t16.5 -39.5zM213 186h-103l-10 564h123z"/>
<glyph glyph-name="quotedbl" horiz-adv-x="423" unicode='&quot;' d="M383 641q0 -25 -12 -41l-94 -136h-34l37 114q-37 20 -37 63q0 29 20.5 49t48.5 20q30 0 50.5 -20t20.5 -49zM200 641q0 -25 -12 -41l-94 -136h-34l37 114q-37 20 -37 63q0 29 20 49t49 20q30 0 50.5 -20t20.5 -49z"/>
<glyph glyph-name="numbersign" horiz-adv-x="967" unicode="#" d="M530 255l52 140h-182l-51 -140h181zM867 395h-180l-52 -140h139v-99h-175l-57 -156h-105l57 156h-182l-57 -156h-105l58 156h-108v99h144l52 140h-103v99h139l59 161h104l-59 -161h182l60 161h104l-59 -161h144v-99z"/>
<glyph glyph-name="dollar" horiz-adv-x="657" unicode="$" d="M373 -140h-64v120q-154 9 -259 124l74 74q5 -9 15 -19q71 -78 170 -86v272q-55 17 -90 32t-73 46.5t-53 74.5q-11 29 -11 65q0 49 23 93q31 59 90.5 83.5t113.5 28.5v122h64v-124q137 -16 233 -122l-73 -73q-8 10 -16 19q-62 68 -144 83v-252q41 -12 69 -23t61 -29 t56 -44t36 -60q12 -24 12 -69q0 -41 -16 -77q-24 -56 -81.5 -92t-136.5 -44v-123zM489 233q-12 33 -40.5 54t-75.5 37v-248q87 15 114 79q8 19 8 41q0 31 -6 37zM198 529q11 -31 38 -51t73 -36v233q-76 -8 -104 -62q-12 -23 -12 -51q0 -16 5 -33z"/>
<glyph glyph-name="percent" horiz-adv-x="838" unicode="%" d="M334 0h-105l276 750h104zM637 340q71 0 121 -49.5t50 -120.5t-50 -121t-121 -50q-70 0 -120 50t-50 121q0 70 49.5 120t120.5 50zM637 250q-33 0 -56.5 -23.5t-23.5 -56.5q0 -34 23.5 -57.5t56.5 -23.5q34 0 57.5 23.5t23.5 57.5q0 33 -23.5 56.5t-57.5 23.5zM200 750 q71 0 121 -50t50 -121t-50 -120.5t-121 -49.5q-70 0 -120 49.5t-50 120.5t50 121t120 50zM200 660q-33 0 -56.5 -24t-23.5 -57t23.5 -56.5t56.5 -23.5q34 0 57.5 23.5t23.5 56.5t-23.5 57t-57.5 24z"/>
<glyph glyph-name="ampersand" horiz-adv-x="737" unicode="&amp;" d="M404 111q21 11 40 27l-227 254q-38 -21 -61 -59.5t-23 -85.5q0 -68 45 -116t109 -48q67 0 117 28zM287 665q-29 0 -49.5 -22.5t-20.5 -53.5t20.5 -53.5t49.5 -22.5t49.5 22t20.5 54t-20.5 54t-49.5 22zM707 0h-141l-53 60q-28 -25 -60 -41q-75 -40 -163 -40h-4v1 q-106 1 -181 79t-75 188q0 71 33.5 131.5t90.5 96.5q-40 50 -40 114q0 74 51 127t122 53q72 0 122.5 -53t50.5 -127q0 -64 -39 -114q-18 -25 -57 -45q-17 -8 -31 -12l175 -196q21 41 28 80l102 -18q-11 -58 -38 -111q-6 -14 -19 -33z"/>
<glyph glyph-name="quotesingle" horiz-adv-x="250" unicode="&apos;" d="M200 641q0 -25 -12 -41l-94 -136h-34l37 114q-37 20 -37 63q0 29 20 49t49 20q30 0 50.5 -20t20.5 -49z"/>
<glyph glyph-name="parenleft" horiz-adv-x="368" unicode="(" d="M190 329q0 -81 17 -152.5t38.5 -115t50.5 -80.5t44 -50.5t28 -22.5l-46 -82q-242 171 -242 503q0 333 242 502l46 -81q-13 -9 -28 -22.5t-44 -50.5t-50.5 -81t-38.5 -115t-17 -152z"/>
<glyph glyph-name="parenright" horiz-adv-x="388" unicode=")" d="M178 329q0 81 -17 152t-38.5 115t-50.5 81t-44 50.5t-28 22.5l46 81q242 -169 242 -502q0 -332 -242 -503l-46 82q13 9 28 22.5t44 50.5t50.5 80.5t38.5 115t17 152.5z"/>
<glyph glyph-name="asterisk" horiz-adv-x="320" unicode="*" d="M270 629v-60h-58l29 -50l-52 -30l-29 50l-29 -50l-52 30l29 50h-58v60h58l-29 51l52 30l29 -51l29 51l52 -30l-29 -51h58z"/>
<glyph glyph-name="plus" horiz-adv-x="546" unicode="+" d="M446 205h-136v-136h-84v136h-136v84h136v136h84v-136h136v-84z"/>
<glyph glyph-name="comma" horiz-adv-x="190" unicode="," d="M180 63q0 -25 -12 -41l-94 -136h-34l37 114q-37 20 -37 63q0 29 20 49t49 20q30 0 50.5 -20t20.5 -49z"/>
<glyph glyph-name="hyphen" horiz-adv-x="536" unicode="-" d="M446 301v-84h-356v84h356z"/>
<glyph glyph-name="period" horiz-adv-x="221" unicode="." d="M201 61q0 -30 -20.5 -50.5t-50.5 -20.5q-29 0 -49.5 20.5t-20.5 50.5q0 29 20.5 49t49.5 20q30 0 50.5 -20t20.5 -49z"/>
<glyph glyph-name="slash" horiz-adv-x="360" unicode="/" d="M95 0h-105l276 750h104z"/>
<glyph glyph-name="zero" horiz-adv-x="615" unicode="0" d="M461 247v255q0 67 -45 115t-109 48t-109 -48t-45 -115v-255q0 -68 45 -116t109 -48t109 48t45 116zM564 506h1v-263h-1q-2 -110 -76.5 -186.5t-180.5 -76.5t-180.5 76.5t-76.5 186.5v263q2 109 76.5 186t180.5 77t180.5 -77t76.5 -186z"/>
<glyph glyph-name="one" horiz-adv-x="353" unicode="1" d="M50 750h223v-750h-111v658h-112v92z"/>
<glyph glyph-name="two" horiz-adv-x="616" unicode="2" d="M479 323q-47 -63 -167 -174q-36 -34 -65 -57h291v-92h-458v92q80 55 161 133q118 111 155 160q56 77 56 144q0 57 -27 91q-15 19 -38 30.5t-35.5 13.5t-19.5 2h-6q-43 0 -75 -25q-49 -33 -66 -98l-101 22q23 106 109 163q63 42 134 42h9q107 -6 171 -85q49 -62 49 -156 q0 -56 -21 -110q-21 -49 -56 -96z"/>
<glyph glyph-name="three" horiz-adv-x="570" unicode="3" d="M323 495q75 -30 122 -97.5t47 -150.5q0 -111 -78.5 -189t-188.5 -78q-65 0 -121.5 29.5t-93.5 79.5l100 43q48 -48 115 -48q69 0 115 48q48 46 48 115q0 67 -48 115q-35 35 -82 44q-8 2 -12 2q-3 0 -4 1h-4h-4h-1h-3h-1h-4h-79l182 248h-231v93h413z"/>
<glyph glyph-name="four" horiz-adv-x="572" unicode="4" d="M179 291h212v301zM502 0h-111v199h-351v81l343 470h119v-750z"/>
<glyph glyph-name="five" horiz-adv-x="547" unicode="5" d="M286 511q96 -13 158.5 -88t62.5 -174q0 -19 -3 -38q-14 -99 -88 -164.5t-170 -65.5q-23 0 -35 2q-106 15 -171 106l83 62q37 -56 103 -65q7 -1 21 -1q57 0 101 40t53 101q2 16 2 25q0 59 -37.5 104.5t-94.5 53.5q-7 1 -21 1q-41 0 -76 -22q-2 -1 -6 -3.5t-6 -3.5h-99v369 h368v-92h-257v-156q36 12 76 12q18 0 36 -3z"/>
<glyph glyph-name="six" horiz-adv-x="615" unicode="6" d="M308 84q64 0 109 48t45 115q0 68 -45 116t-109 48t-109 -48t-45 -116q0 -67 45 -115t109 -48zM308 514q107 0 182 -78t75 -189q0 -110 -75 -188t-182 -78t-182.5 78t-75.5 188q0 72 36 135l207 368h119l-134 -238q10 2 30 2z"/>
<glyph glyph-name="seven" horiz-adv-x="580" unicode="7" d="M40 750h540l-418 -750h-122l369 658h-369v92z"/>
<glyph glyph-name="eight" horiz-adv-x="595" unicode="8" d="M298 83q64 0 109 48t45 115q0 68 -45 116t-109 48t-109 -48t-45 -116q0 -67 45 -115t109 -48zM228 589q0 -32 20.5 -54t49.5 -22t49.5 22.5t20.5 53.5t-20.5 53.5t-49.5 22.5t-49.5 -22t-20.5 -54zM431 475q57 -36 90.5 -96.5t33.5 -132.5q0 -110 -75 -188t-182 -78 t-182.5 78t-75.5 188q0 71 33.5 132t90.5 97q-39 48 -39 114q0 74 50.5 127t122.5 53q71 0 122 -53t51 -127q0 -64 -40 -114z"/>
<glyph glyph-name="nine" horiz-adv-x="605" unicode="9" d="M153 503q0 -67 45 -115t109 -48t109 48t45 115t-45 115t-109 48t-109 -48t-45 -115zM565 503q0 -71 -35 -135l-208 -368h-118l133 238q-20 -2 -30 -2q-106 0 -181.5 78.5t-75.5 188.5t75.5 188.5t181.5 78.5q107 0 182.5 -78.5t75.5 -188.5z"/>
<glyph glyph-name="colon" horiz-adv-x="241" unicode=":" d="M191 61q0 -30 -20.5 -50.5t-50.5 -20.5q-29 0 -49.5 20.5t-20.5 50.5q0 29 20.5 49t49.5 20q30 0 50.5 -20t20.5 -49zM191 383q0 -30 -20.5 -50.5t-50.5 -20.5q-29 0 -49.5 20.5t-20.5 50.5q0 29 20.5 49t49.5 20q30 0 50.5 -20t20.5 -49z"/>
<glyph glyph-name="semicolon" horiz-adv-x="241" unicode=";" d="M191 383q0 -30 -20.5 -50.5t-50.5 -20.5q-29 0 -49.5 20.5t-20.5 50.5q0 29 20.5 49t49.5 20q30 0 50.5 -20t20.5 -49zM191 63q0 -25 -12 -41l-94 -136h-34l37 114q-37 20 -37 63q0 29 20.5 49t48.5 20q30 0 50.5 -20t20.5 -49z"/>
<glyph glyph-name="less" horiz-adv-x="484" unicode="&lt;" d="M60 248v63l364 248v-104l-262 -176l262 -175v-104z"/>
<glyph glyph-name="equal" horiz-adv-x="546" unicode="=" d="M446 210v-84h-356v84h356zM446 371v-84h-356v84h356z"/>
<glyph glyph-name="greater" horiz-adv-x="484" unicode="&gt;" d="M424 248l-364 -248v104l262 175l-262 176v104l364 -248v-63z"/>
<glyph glyph-name="question" horiz-adv-x="549" unicode="?" d="M230 157v7q0 79 30 146q13 28 27.5 46t39 38t29.5 25q18 18 25.5 26t16 22.5t12.5 30.5q5 20 5 38q0 16 -3 31q-6 37 -26 63q-33 42 -89 45h-4q-68 0 -108 -51q-26 -34 -32 -85l-103 10q6 77 56 136q49 55 123 75q33 8 61 8q3 0 8 -0.5t6 -0.5q36 -2 69 -14 q55 -20 92 -63t50 -106q4 -30 4 -44q0 -34 -9 -65q-7 -28 -23.5 -53.5t-27.5 -36.5t-34 -32q-51 -43 -70 -86q-21 -47 -21 -103v-7h-104zM340 37q0 -24 -16.5 -40.5t-40.5 -16.5q-23 0 -39.5 16.5t-16.5 40.5q0 23 16.5 39.5t39.5 16.5q24 0 40.5 -16.5t16.5 -39.5z"/>
<glyph glyph-name="at" horiz-adv-x="979" unicode="@" d="M515 -141q32 0 69 8q29 7 59 23l28 -54q-34 -18 -73 -27q-37 -10 -80 -10h-3q-99 2 -187 39q-82 35 -149 102q-63 64 -95 142q-34 80 -34 161v7q0 78 33 157q31 72 86 131q56 57 122 94q67 36 144 49q36 4 63 4q33 0 65 -4q60 -10 109 -29q67 -29 115 -71 q68 -59 104 -143q28 -66 36 -147q2 -26 2 -47q0 -68 -16 -139q-21 -94 -67 -144.5t-102 -50.5q-69 0 -105.5 39.5t-36.5 74.5v2q-59 -48 -132 -48q-106 0 -181.5 78.5t-75.5 188.5t75 188t182 78q69 0 132 -47v28h104v-402q0 -90 38 -90q27 0 49 15.5t34.5 38.5t18.5 38 t9 26q14 60 14 123q0 19 -2 45q-14 157 -120 250q-102 89 -251 89q-36 0 -51 -3q-67 -11 -125 -43q-62 -34 -107 -82q-48 -51 -75 -113q-28 -67 -28 -135v-7q0 -68 29 -137q28 -67 82 -122q57 -58 131 -90q75 -32 163 -34zM470 63q42 0 77 24t55 65q22 42 22 93t-22 93 q-20 40 -55.5 64.5t-76.5 24.5q-63 0 -108 -53.5t-45 -128.5q0 -76 45 -129t108 -53z"/>
<glyph glyph-name="A" horiz-adv-x="694" unicode="A" d="M229 288h225l-112 296zM376 750l308 -750h-120l-75 196h-295l-74 -196h-120l308 750h68z"/>
<glyph glyph-name="B" horiz-adv-x="700" unicode="B" d="M397 92q46 0 79 40.5t33 97.5q0 55 -31.5 95.5t-75.5 42.5h-5h-186v-276h186zM211 658v-198h186h3q28 2 48 31.5t20 68.5q0 40 -21 69t-50 29h-186zM522 421q45 -31 71.5 -81.5t26.5 -109.5q0 -95 -65.5 -162.5t-157.5 -67.5h-297v750h297q76 0 129 -56t53 -134 q0 -82 -57 -139z"/>
<glyph glyph-name="C" horiz-adv-x="769" unicode="C" d="M635 177l73 -73q-113 -124 -277 -124q-158 0 -269.5 115.5t-111.5 279.5q0 163 111.5 278.5t269.5 115.5q164 0 278 -125l-73 -73q-8 10 -16 19q-79 87 -189 87q-111 0 -189 -87q-81 -89 -81 -215t81 -216q78 -87 189 -87q110 0 189 87z"/>
<glyph glyph-name="D" horiz-adv-x="792" unicode="D" d="M370 92q104 0 176 81q75 84 75 202t-75 201q-73 82 -176 82h-179v-566h179zM732 375q0 -155 -105.5 -264.5t-254.5 -110.5h-292v750h292q149 -1 254.5 -110.5t105.5 -264.5z"/>
<glyph glyph-name="E" horiz-adv-x="658" unicode="E" d="M201 92h407v-92h-518v750h499v-92h-388v-222h317v-93h-317v-251z"/>
<glyph glyph-name="F" horiz-adv-x="638" unicode="F" d="M588 658h-387v-234h317v-92h-317v-332h-111v750h498v-92z"/>
<glyph glyph-name="G" horiz-adv-x="872" unicode="G" d="M497 420h305v-420h-111v96q-113 -116 -270 -116q-158 0 -269.5 116t-111.5 279t112 278.5t269 115.5q81 0 153 -33t125 -92l-73 -73q-15 18 -16 19q-78 87 -189 87q-110 0 -189 -87q-80 -88 -80 -215t80 -216q79 -87 189 -87q111 0 189 87q64 72 78 169h-191v92z"/>
<glyph glyph-name="H" horiz-adv-x="735" unicode="H" d="M534 750h111v-750h-111v329h-353v-329h-111v750h111v-329h353v329z"/>
<glyph glyph-name="I" horiz-adv-x="311" unicode="I" d="M201 0h-111v750h111v-750z"/>
<glyph glyph-name="J" horiz-adv-x="618" unicode="J" d="M436 750h112v-513q0 -48 -12.5 -91.5t-39.5 -82t-76 -61t-115 -22.5t-115.5 22.5t-76.5 61t-40 82t-13 91.5h111q0 -165 134 -165q131 0 131 165v513z"/>
<glyph glyph-name="K" horiz-adv-x="824" unicode="K" d="M774 750l-369 -310l369 -440h-155l-299 369l-109 -91v-278h-111v750h111v-342l400 342h163z"/>
<glyph glyph-name="L" horiz-adv-x="599" unicode="L" d="M181 92h378v-92h-489v750h111v-658z"/>
<glyph glyph-name="M" horiz-adv-x="1033" unicode="M" d="M927 750h16v-750h-111v563l-289 -563h-63l-289 563v-563h-111v750h15h119l297 -580l297 580h119z"/>
<glyph glyph-name="N" horiz-adv-x="838" unicode="N" d="M748 750v-750h-134l-402 597v-597h-112v750h134l403 -597v597h111z"/>
<glyph glyph-name="O" horiz-adv-x="832" unicode="O" d="M411 769q158 0 269.5 -115.5t111.5 -278.5t-111.5 -279t-269.5 -116t-269.5 116t-111.5 279t111.5 278.5t269.5 115.5zM411 677q-110 0 -189 -87q-81 -89 -81 -215t81 -216q79 -87 189 -87q111 0 189 87q81 90 81 216t-81 215q-78 87 -189 87z"/>
<glyph glyph-name="P" horiz-adv-x="706" unicode="P" d="M380 290q64 0 109.5 54t45.5 130t-45.5 130t-109.5 54h-178v-368h178zM646 474q0 -114 -77 -194.5t-187 -81.5h-180v-198h-112v750h292q110 -1 187 -81.5t77 -194.5z"/>
<glyph glyph-name="Q" horiz-adv-x="894" unicode="Q" d="M441 72q84 0 155 55l-113 122l68 63l107 -117q52 80 52 180q0 127 -80 215q-79 87 -189 87q-111 0 -190 -87q-80 -89 -80 -215q0 -125 80 -216q79 -87 190 -87zM834 7l-68 -63l-103 111q-99 -75 -222 -75q-158 0 -269.5 115.5t-111.5 279.5t111.5 279t269.5 115 t269.5 -115.5t111.5 -278.5q0 -146 -92 -257z"/>
<glyph glyph-name="R" horiz-adv-x="696" unicode="R" d="M191 658v-348h179q65 0 110 49.5t45 124.5t-45 124.5t-110 49.5h-179zM636 484q0 -84 -44 -149.5t-117 -96.5l161 -238h-123l-147 218h-175v-218h-111v218v92v348v92h111h180q111 -1 188 -77.5t77 -188.5z"/>
<glyph glyph-name="S" horiz-adv-x="677" unicode="S" d="M595 265q12 -24 12 -69q0 -41 -16 -77q-27 -64 -97.5 -101t-165.5 -38q-80 0 -152 33t-126 91l74 74q5 -9 15 -19q78 -87 189 -87q125 1 159 83q8 19 8 41q0 31 -6 37q-14 40 -52 62t-109 44q-37 11 -58 18t-54 21.5t-53 29.5t-40 38.5t-30 51.5q-11 29 -11 65 q0 49 23 93q20 38 55 63.5t73.5 35t59 12t35.5 2.5q164 0 278 -125l-73 -73q-8 10 -16 19q-79 87 -189 87q-4 0 -10.5 -0.5t-23.5 -4t-31.5 -9.5t-31 -19t-26.5 -31q-12 -23 -12 -51q0 -16 5 -33q14 -38 51 -59.5t106 -42.5q39 -12 59 -18.5t54.5 -21.5t54.5 -30t40.5 -39 t31.5 -53z"/>
<glyph glyph-name="T" horiz-adv-x="575" unicode="T" d="M575 750v-92h-232v-658h-111v658h-232v92h575z"/>
<glyph glyph-name="U" horiz-adv-x="732" unicode="U" d="M561 750h111v-456q0 -41 -6.5 -79.5t-26.5 -82.5t-52 -76.5t-87.5 -54t-127.5 -21.5t-127.5 21.5t-88 54t-52.5 76.5t-27 82.5t-7 79.5v456h111v-456q0 -20 2 -41t13 -56t30 -60.5t57 -45t89 -19.5q43 0 76.5 13t53 35t32.5 45.5t18.5 51.5t7 44.5t1.5 32.5v456z"/>
<glyph glyph-name="V" horiz-adv-x="661" unicode="V" d="M362 0h-63l-289 750h119l202 -552l201 552h119z"/>
<glyph glyph-name="W" horiz-adv-x="1030" unicode="W" d="M324 0h-57l-267 750h118l179 -529l189 529h57l189 -529l179 529h119l-267 -750h-57l-191 527z"/>
<glyph glyph-name="X" horiz-adv-x="709" unicode="X" d="M679 750l-261 -376l260 -374h-129l-194 280l-195 -280h-130l261 374l-261 376h130l194 -281l196 281h129z"/>
<glyph glyph-name="Y" horiz-adv-x="689" unicode="Y" d="M584 750h135l-309 -452v-298h-111v298l-309 452h135l229 -350z"/>
<glyph glyph-name="Z" horiz-adv-x="745" unicode="Z" d="M645 750v-114l-429 -544h429v-92h-545v114l428 544h-428v92h493h52z"/>
<glyph glyph-name="bracketleft" horiz-adv-x="303" unicode="[" d="M191 -80h112v-92h-223v1094h223v-92h-112v-910z"/>
<glyph glyph-name="backslash" horiz-adv-x="360" unicode="\" d="M370 0h-105l-275 750h104z"/>
<glyph glyph-name="bracketright" horiz-adv-x="303" unicode="]" d="M0 -80h112v910h-112v92h223v-1094h-223v92z"/>
<glyph glyph-name="asciicircum" d="M307 750l107 -166h-86l-78 96l-78 -96h-86l107 166h114z" unicode="^"/>
<glyph glyph-name="underscore" d="M503 -50v-84h-506v84h506z" unicode="_"/>
<glyph glyph-name="grave" d="M338 584h-86l-98 116l97 50z" unicode="`"/>
<glyph glyph-name="a" horiz-adv-x="540" unicode="a" d="M367 154v74h-126q-45 0 -71.5 -27t-26.5 -70q0 -33 27.5 -49.5t70.5 -16.5q64 0 95 28.5t31 60.5zM271 514q98 0 148.5 -48t50.5 -111v-355h-103v44q-46 -63 -140 -63q-92 0 -139.5 42.5t-47.5 111.5q0 87 54.5 132t132.5 45h140v43q0 74 -96 74q-72 0 -118 -64l-71 64 q77 85 189 85z"/>
<glyph glyph-name="b" horiz-adv-x="602" unicode="b" d="M305 64q64 0 109 53.5t45 128.5q0 76 -45 129t-109 53q-41 0 -76 -24t-56 -64q-22 -44 -22 -94q0 -51 22 -93q21 -41 56 -65t76 -24zM305 513q106 0 181.5 -78.5t75.5 -188.5t-75 -188t-182 -78q-69 0 -132 47v-27h-103v750h103v-285q59 48 132 48z"/>
<glyph glyph-name="c" horiz-adv-x="516" unicode="c" d="M405 129l71 -64q-77 -85 -189 -85q-107 0 -182 78t-75 188t75.5 188.5t181.5 78.5q112 0 189 -85l-71 -64q-48 64 -118 64q-64 0 -109 -53t-45 -129q0 -75 45 -128.5t109 -53.5q71 0 118 65z"/>
<glyph glyph-name="d" horiz-adv-x="613" unicode="d" d="M144 246q0 -75 45 -128.5t108 -53.5q41 0 76.5 24.5t55.5 64.5q22 42 22 93q0 50 -22 94q-20 40 -55 64t-77 24q-63 0 -108 -53t-45 -129zM40 246q0 110 75.5 188.5t181.5 78.5q73 0 132 -48v285h104v-750h-104v27q-63 -47 -132 -47q-107 0 -182 78t-75 188z"/>
<glyph glyph-name="e" horiz-adv-x="566" unicode="e" d="M139 294h279q-13 59 -51.5 96.5t-88.5 37.5t-88.5 -38t-50.5 -96zM526 246v-37h-389q11 -62 53 -103.5t98 -41.5q72 0 117 65l71 -64q-77 -85 -188 -85q-107 0 -182.5 78t-75.5 188t72.5 188.5t175.5 78.5q91 0 159.5 -62.5t84.5 -156.5q4 -21 4 -48z"/>
<glyph glyph-name="f" horiz-adv-x="372" unicode="f" d="M342 675q-22 10 -39 10q-16 0 -33 -7q-36 -16 -46.5 -43t-10.5 -91v-50h129v-84h-129v-410h-103v410h-60v84h60v50q0 66 4.5 93.5t25.5 61.5q43 71 143 71q35 0 59 -15v-80z"/>
<glyph glyph-name="g" horiz-adv-x="622" unicode="g" d="M307 65q41 0 76 24t56 65q22 42 22 93q0 50 -22 94q-21 40 -56 64t-76 24q-64 0 -109 -53t-45 -129q0 -75 45 -128.5t109 -53.5zM439 494h103v-502q0 -110 -75 -188t-182 -78q-111 0 -188 85l71 64q46 -65 117 -65q64 0 109 53.5t45 128.5v36q-57 -47 -132 -47 q-107 0 -182 78t-75 188t75.5 188.5t181.5 78.5q70 0 132 -48v28z"/>
<glyph glyph-name="h" horiz-adv-x="597" unicode="h" d="M527 286v-286h-103v286q0 76 -26.5 110t-89.5 34q-135 0 -135 -144v-286h-103v750h103v-325q10 34 50 59t85 28q11 1 32 1q97 0 142 -56.5t45 -170.5z"/>
<glyph glyph-name="i" horiz-adv-x="263" unicode="i" d="M183 675q0 -24 -16.5 -40.5t-40.5 -16.5q-23 0 -39.5 16.5t-16.5 40.5q0 23 16.5 39.5t39.5 16.5q24 0 40.5 -16.5t16.5 -39.5zM178 0h-103v494h103v-494z"/>
<glyph glyph-name="j" horiz-adv-x="298" unicode="j" d="M-20 -118q23 -10 39 -10t33 7q36 16 46.5 43t10.5 91v481h103v-481v-14q0 -56 -5 -82t-25 -59q-42 -71 -143 -71q-35 0 -59 15v80zM218 675q0 -24 -16.5 -40.5t-39.5 -16.5q-24 0 -40.5 16.5t-16.5 40.5q0 23 16.5 39.5t40.5 16.5q23 0 39.5 -16.5t16.5 -39.5z"/>
<glyph glyph-name="k" horiz-adv-x="558" unicode="k" d="M415 0l-187 239l-54 -46v-193h-104v750h104v-429l199 173h160l-230 -192l245 -302h-133z"/>
<glyph glyph-name="l" horiz-adv-x="264" unicode="l" d="M174 0h-104v769h104v-769z"/>
<glyph glyph-name="m" horiz-adv-x="951" unicode="m" d="M881 0h-104v286q0 76 -26.5 110t-88.5 34q-135 0 -135 -144v-286h-103h-1v286q0 76 -26 110t-89 34q-135 0 -135 -144v-286h-103v494h103v-69q10 34 50 59t85 28q11 1 32 1q140 0 175 -124q2 44 42.5 81.5t104.5 41.5q11 1 30 1q98 0 143.5 -56t45.5 -171v-286z"/>
<glyph glyph-name="n" horiz-adv-x="607" unicode="n" d="M527 285v-285h-103v285q0 76 -26.5 110t-89.5 34q-135 0 -135 -144v-285h-103v494h103v-70q10 34 49.5 59t85.5 29q10 1 30 1q98 0 143.5 -56.5t45.5 -171.5z"/>
<glyph glyph-name="o" horiz-adv-x="604" unicode="o" d="M297 513q106 0 181.5 -78.5t75.5 -188.5t-75 -188t-182 -78t-182 78t-75 188t75.5 188.5t181.5 78.5zM297 428q-64 0 -109 -53t-45 -129q0 -75 45 -128.5t109 -53.5t109 53.5t45 128.5q0 76 -45 129t-109 53z"/>
<glyph glyph-name="p" horiz-adv-x="593" unicode="p" d="M439 246q0 76 -45 129t-109 53q-41 0 -76 -24t-56 -65q-21 -44 -21 -93t21 -93q21 -41 56 -65t76 -24q64 0 109 53.5t45 128.5zM543 246q0 -110 -75.5 -188t-182.5 -78q-75 0 -132 47v-282h-103v749h103v-29q62 48 132 48q107 0 182.5 -78.5t75.5 -188.5z"/>
<glyph glyph-name="q" horiz-adv-x="613" unicode="q" d="M297 428q-64 0 -109 -53t-45 -129q0 -75 45 -128.5t109 -53.5q41 0 76 24t56 65q22 42 22 93t-22 93q-21 41 -56 65t-76 24zM297 -20q-107 0 -182 78t-75 188t75.5 188.5t181.5 78.5q70 0 132 -48v29h104v-749h-104v282q-57 -47 -132 -47z"/>
<glyph glyph-name="r" horiz-adv-x="377" unicode="r" d="M357 498v-80q-23 10 -59 10q-61 0 -98 -56t-37 -135v-237h-103v494h103v-70q9 35 49.5 62t84.5 27q34 0 60 -15z"/>
<glyph glyph-name="s" horiz-adv-x="471" unicode="s" d="M403 182q8 -32 8 -52q0 -29 -10 -53q-20 -44 -68.5 -70.5t-112.5 -26.5h-1q-102 0 -179 75l67 67q42 -54 112 -54q37 0 65 12t36 32q3 7 3 19q0 4 -0.5 9t-0.5 8l-1 3q-4 11 -13.5 19t-27 15.5t-28.5 11t-37 10.5q-30 9 -49 16.5t-43.5 20.5t-41.5 32t-26 44q-8 22 -8 45 q0 36 17 68q14 27 38.5 45t51 24.5t41 8.5t24.5 2q109 0 180 -73l-67 -67q-40 52 -113 52q-6 0 -17 -1t-31.5 -9.5t-28.5 -23.5q-7 -10 -7 -26q0 -7 3 -15q4 -12 19.5 -22t30.5 -15.5t43 -14.5q7 -2 10 -3q41 -12 66.5 -22.5t54.5 -34t41 -56.5z"/>
<glyph glyph-name="t" horiz-adv-x="382" unicode="t" d="M250 72q17 -7 33 -7q17 0 39 10v-80q-24 -15 -59 -15q-99 0 -143 71q-21 35 -25.5 62.5t-4.5 92.5v204h-60v84h60v256h103v-256h129v-84h-129v-204q0 -64 10.5 -91t46.5 -43z"/>
<glyph glyph-name="u" horiz-adv-x="607" unicode="u" d="M70 208v286h103v-286q0 -76 26.5 -110t89.5 -34q134 0 134 144v286h104v-494h-104v69q-9 -34 -48.5 -59t-85.5 -29q-11 -1 -30 -1q-98 0 -143.5 56.5t-45.5 171.5z"/>
<glyph glyph-name="v" horiz-adv-x="519" unicode="v" d="M292 0h-63l-209 494h104l136 -345l136 345h103z"/>
<glyph glyph-name="w" horiz-adv-x="768" unicode="w" d="M655 494h103l-188 -494h-63l-123 320l-122 -320h-63l-189 494h104l117 -345l103 304l13 41h74l14 -41l103 -304z"/>
<glyph glyph-name="x" horiz-adv-x="477" unicode="x" d="M467 494l-175 -247l175 -247h-118l-110 165l-111 -165h-118l176 247l-176 247h118l111 -165l110 165h118z"/>
<glyph glyph-name="y" horiz-adv-x="509" unicode="y" d="M489 494q-125 -296 -208 -494q-61 -144 -107.5 -210t-110.5 -66q-25 0 -55 12q-16 6 -38 18l31 90q17 -15 38 -20q10 -2 13 -2q20 0 38 15.5t34.5 45.5t27.5 54.5t25.5 63.5t19.5 51l-187 442h104l136 -324l135 324h104z"/>
<glyph glyph-name="z" horiz-adv-x="475" unicode="z" d="M405 494v-88l-249 -322h249v-84h-355v94l248 316h-248v84h355z"/>
<glyph glyph-name="braceleft" horiz-adv-x="471" unicode="{" d="M350 -12q34 -33 114 -33h7v-104h-10q-118 0 -184 63q-45 45 -57 117q-7 38 -7 116v33q0 89 -31 117q-28 27 -91 27h-7h-4l2 52l-2 51l2 1h2h12q58 0 86 26q31 29 31 118v32q0 78 7 116q12 72 57 117q63 63 183 63h11v-104h-7q-80 0 -114 -33q-20 -21 -28 -61 q-5 -29 -5 -97v-29q0 -65 -12.5 -113t-51.5 -85l-2 -2l2 -2q39 -36 51.5 -85t12.5 -114v-29q0 -68 5 -97q7 -39 28 -61z"/>
<glyph glyph-name="braceright" horiz-adv-x="471" unicode="}" d="M0 -46h7q79 0 114 33q21 22 28 61q5 29 5 97v29q0 65 12.5 114t51.5 85l2 2l-2 2q-39 37 -51.5 85t-12.5 113v29q0 68 -5 97q-7 41 -28 61q-34 33 -114 33h-7v104h11q120 0 183 -63q45 -45 57 -117q7 -38 7 -116v-32q0 -89 31 -118q28 -26 86 -26h12q1 0 3 -1h1l-2 -51 l2 -52h-4h-7q-62 0 -91 -27q-31 -28 -31 -117v-33q0 -78 -7 -116q-12 -72 -57 -117q-66 -63 -184 -63h-10v104z"/>
<glyph glyph-name="sterling" horiz-adv-x="559" unicode="£" d="M273 209q-16 -48 -65 -117h301v-92h-458q0 23 10.5 49.5t21 43.5t32.5 48q58 83 67 126h-132v64h130q-5 15 -7 19q-37 87 -37 165q0 98 59 170q63 79 171 85h9q71 0 134 -42l-58 -87q-35 25 -76 25h-5q-7 0 -19.5 -2t-36 -13.5t-38.5 -30.5q-28 -36 -34 -77 q-2 -18 -2 -28q0 -55 29 -125q13 -30 17 -59h174v-64h-173q-3 -26 -14 -58z"/>
<glyph glyph-name="yen" horiz-adv-x="649" unicode="¥" d="M570 140h-180v-140h-111v140h-184v64h184v68h-184v64h158l-283 414h135l229 -350l230 350h135l-283 -414h154v-64h-180v-68h180v-64z"/>
<glyph glyph-name="dieresis" d="M389 675q0 -24 -16.5 -40.5t-40.5 -16.5q-23 0 -39.5 16.5t-16.5 40.5q0 23 16.5 39.5t39.5 16.5q24 0 40.5 -16.5t16.5 -39.5zM224 675q0 -24 -16.5 -40.5t-40.5 -16.5q-23 0 -39.5 16.5t-16.5 40.5q0 23 16.5 39.5t39.5 16.5q24 0 40.5 -16.5t16.5 -39.5z" unicode="¨"/>
<glyph glyph-name="guillemotleft" horiz-adv-x="425" unicode="«" d="M235 533q0 21 13 41l94 135h33l-36 -114q36 -19 36 -62q0 -29 -20 -49.5t-49 -20.5q-30 0 -50.5 20.5t-20.5 49.5zM50 533q0 21 13 41l94 135h33l-36 -114q36 -19 36 -62q0 -29 -20 -49.5t-49 -20.5q-30 0 -50.5 20.5t-20.5 49.5z"/>
<glyph glyph-name="plusminus" d="M446 0h-356v84h356v-84zM446 274h-136v-136h-84v136h-136v84h136v136h84v-136h136v-84z" unicode="±"/>
<glyph glyph-name="acute" d="M223 584h-86l87 166l97 -50z" unicode="´"/>
<glyph glyph-name="periodcentered" horiz-adv-x="261" unicode="·" d="M201 61q0 -30 -20.5 -50.5t-50.5 -20.5q-29 0 -49.5 20.5t-20.5 50.5q0 29 20.5 49t49.5 20q30 0 50.5 -20t20.5 -49z"/>
<glyph glyph-name="cedilla" horiz-adv-x="217" unicode="¸" d="M105 -49q35 -2 58.5 -28t23.5 -63q0 -38 -25.5 -64.5t-62.5 -26.5q-38 0 -64 29l44 57q8 -11 21 -11q11 0 18.5 9t7.5 22t-7.5 22t-18.5 9q-13 0 -21 -11l-52 31l84 95l33 -31z"/>
<glyph glyph-name="guillemotright" horiz-adv-x="424" unicode="»" d="M384 641q0 -25 -12 -41l-94 -136h-34l37 114q-37 20 -37 63q0 29 20 49t49 20q30 0 50.5 -20t20.5 -49zM200 641q0 -25 -12 -41l-94 -136h-34l37 114q-37 20 -37 63q0 29 20 49t49 20q30 0 50.5 -20t20.5 -49z"/>
<glyph glyph-name="Agrave" horiz-adv-x="704" unicode="À" d="M386 830h-86l-98 116l97 50zM239 288h225l-112 296zM386 750l308 -750h-120l-75 196h-295l-74 -196h-120l308 750h68z"/>
<glyph glyph-name="Aacute" horiz-adv-x="704" unicode="Á" d="M405 830h-86l87 166l97 -50zM239 288h225l-112 296zM386 750l308 -750h-120l-75 196h-295l-74 -196h-120l308 750h68z"/>
<glyph glyph-name="Acircumflex" horiz-adv-x="704" unicode="Â" d="M410 996l107 -166h-86l-78 96l-78 -96h-86l107 166h114zM239 288h225l-112 296zM386 750l308 -750h-120l-75 196h-295l-74 -196h-120l308 750h68z"/>
<glyph glyph-name="Adieresis" horiz-adv-x="704" unicode="Ä" d="M492 887q0 -24 -16.5 -40.5t-40.5 -16.5q-23 0 -39.5 16.5t-16.5 40.5q0 23 16.5 39.5t39.5 16.5q24 0 40.5 -16.5t16.5 -39.5zM327 887q0 -24 -16.5 -40.5t-40.5 -16.5q-23 0 -39.5 16.5t-16.5 40.5q0 23 16.5 39.5t39.5 16.5q24 0 40.5 -16.5t16.5 -39.5zM239 288h225 l-112 296zM386 750l308 -750h-120l-75 196h-295l-74 -196h-120l308 750h68z"/>
<glyph glyph-name="Ccedilla" horiz-adv-x="769" unicode="Ç" d="M402 -231q-38 0 -64 29l44 57q8 -11 21 -11q11 0 18.5 9t7.5 22t-7.5 22t-18.5 9q-13 0 -21 -11l-52 31q5 5 51 57q-141 20 -236 131.5t-95 260.5q0 163 111.5 278.5t269.5 115.5q164 0 278 -125l-73 -73q-8 10 -16 19q-79 87 -189 87q-111 0 -189 -87q-81 -89 -81 -215 t81 -216q78 -87 189 -87q110 0 189 87l15 18l73 -73q-110 -121 -271 -124l-29 -29q35 -2 58.5 -28t23.5 -63q0 -38 -25.5 -64.5t-62.5 -26.5z"/>
<glyph glyph-name="Egrave" horiz-adv-x="668" unicode="È" d="M384 830h-86l-98 116l97 50zM181 92h407v-92h-518v750h499v-92h-388v-222h317v-93h-317v-251z"/>
<glyph glyph-name="Eacute" horiz-adv-x="668" unicode="É" d="M375 830h-86l87 166l97 -50zM181 92h407v-92h-518v750h499v-92h-388v-222h317v-93h-317v-251z"/>
<glyph glyph-name="Ecircumflex" horiz-adv-x="668" unicode="Ê" d="M387 996l107 -166h-86l-78 96l-78 -96h-86l107 166h114zM181 92h407v-92h-518v750h499v-92h-388v-222h317v-93h-317v-251z"/>
<glyph glyph-name="Edieresis" horiz-adv-x="668" unicode="Ë" d="M467 887q0 -24 -16.5 -40.5t-40.5 -16.5q-23 0 -39.5 16.5t-16.5 40.5q0 23 16.5 39.5t39.5 16.5q24 0 40.5 -16.5t16.5 -39.5zM302 887q0 -24 -16.5 -40.5t-40.5 -16.5q-23 0 -39.5 16.5t-16.5 40.5q0 23 16.5 39.5t39.5 16.5q24 0 40.5 -16.5t16.5 -39.5zM181 92h407 v-92h-518v750h499v-92h-388v-222h317v-93h-317v-251z"/>
<glyph glyph-name="Igrave" horiz-adv-x="384" unicode="Ì" d="M284 830h-86l-98 116l97 50zM284 0h-111v750h111v-750z"/>
<glyph glyph-name="Iacute" horiz-adv-x="384" unicode="Í" d="M186 830h-86l87 166l97 -50zM211 0h-111v750h111v-750z"/>
<glyph glyph-name="Icircumflex" horiz-adv-x="528" unicode="Î" d="M321 996l107 -166h-86l-78 96l-78 -96h-86l107 166h114zM319 0h-111v750h111v-750z"/>
<glyph glyph-name="Idieresis" horiz-adv-x="478" unicode="Ï" d="M378 887q0 -24 -16.5 -40.5t-40.5 -16.5q-23 0 -39.5 16.5t-16.5 40.5q0 23 16.5 39.5t39.5 16.5q24 0 40.5 -16.5t16.5 -39.5zM213 887q0 -24 -16.5 -40.5t-40.5 -16.5q-23 0 -39.5 16.5t-16.5 40.5q0 23 16.5 39.5t39.5 16.5q24 0 40.5 -16.5t16.5 -39.5zM294 0h-111 v750h111v-750z"/>
<glyph glyph-name="Ograve" horiz-adv-x="862" unicode="Ò" d="M451 830h-86l-98 116l97 50zM431 769q158 0 269.5 -115.5t111.5 -278.5t-111.5 -279t-269.5 -116t-269.5 116t-111.5 279t111.5 278.5t269.5 115.5zM431 677q-110 0 -189 -87q-81 -89 -81 -215t81 -216q79 -87 189 -87q111 0 189 87q81 90 81 216t-81 215q-78 87 -189 87 z"/>
<glyph glyph-name="Oacute" horiz-adv-x="862" unicode="Ó" d="M505 830h-86l87 166l97 -50zM431 769q158 0 269.5 -115.5t111.5 -278.5t-111.5 -279t-269.5 -116t-269.5 116t-111.5 279t111.5 278.5t269.5 115.5zM431 677q-110 0 -189 -87q-81 -89 -81 -215t81 -216q79 -87 189 -87q111 0 189 87q81 90 81 216t-81 215q-78 87 -189 87 z"/>
<glyph glyph-name="Ocircumflex" horiz-adv-x="862" unicode="Ô" d="M488 996l107 -166h-86l-78 96l-78 -96h-86l107 166h114zM431 769q158 0 269.5 -115.5t111.5 -278.5t-111.5 -279t-269.5 -116t-269.5 116t-111.5 279t111.5 278.5t269.5 115.5zM431 677q-110 0 -189 -87q-81 -89 -81 -215t81 -216q79 -87 189 -87q111 0 189 87 q81 90 81 216t-81 215q-78 87 -189 87z"/>
<glyph glyph-name="Odieresis" horiz-adv-x="862" unicode="Ö" d="M568 897q0 -24 -16.5 -40.5t-40.5 -16.5q-23 0 -39.5 16.5t-16.5 40.5q0 23 16.5 39.5t39.5 16.5q24 0 40.5 -16.5t16.5 -39.5zM403 897q0 -24 -16.5 -40.5t-40.5 -16.5q-23 0 -39.5 16.5t-16.5 40.5q0 23 16.5 39.5t39.5 16.5q24 0 40.5 -16.5t16.5 -39.5zM431 769 q158 0 269.5 -115.5t111.5 -278.5t-111.5 -279t-269.5 -116t-269.5 116t-111.5 279t111.5 278.5t269.5 115.5zM431 677q-110 0 -189 -87q-81 -89 -81 -215t81 -216q79 -87 189 -87q111 0 189 87q81 90 81 216t-81 215q-78 87 -189 87z"/>
<glyph glyph-name="multiply" horiz-adv-x="484" unicode="×" d="M393 343l-97 -96l97 -96l-60 -59l-96 96l-96 -96l-60 59l97 96l-97 96l60 60l96 -96l96 96z"/>
<glyph glyph-name="Ugrave" horiz-adv-x="782" unicode="Ù" d="M458 830h-86l-98 116l97 50zM581 750h111v-456q0 -41 -6.5 -79.5t-26.5 -82.5t-52 -76.5t-87.5 -54t-127.5 -21.5t-127.5 21.5t-88 54t-52.5 76.5t-27 82.5t-7 79.5v456h111v-456q0 -20 2 -41t13 -56t30 -60.5t57 -45t89 -19.5q43 0 76.5 13t53 35t32.5 45.5t18.5 51.5 t7 44.5t1.5 32.5v456z"/>
<glyph glyph-name="Uacute" horiz-adv-x="782" unicode="Ú" d="M411 830h-86l87 166l97 -50zM581 750h111v-456q0 -41 -6.5 -79.5t-26.5 -82.5t-52 -76.5t-87.5 -54t-127.5 -21.5t-127.5 21.5t-88 54t-52.5 76.5t-27 82.5t-7 79.5v456h111v-456q0 -20 2 -41t13 -56t30 -60.5t57 -45t89 -19.5q43 0 76.5 13t53 35t32.5 45.5t18.5 51.5 t7 44.5t1.5 32.5v456z"/>
<glyph glyph-name="Ucircumflex" horiz-adv-x="782" unicode="Û" d="M447 996l107 -166h-86l-78 96l-78 -96h-86l107 166h114zM581 750h111v-456q0 -41 -6.5 -79.5t-26.5 -82.5t-52 -76.5t-87.5 -54t-127.5 -21.5t-127.5 21.5t-88 54t-52.5 76.5t-27 82.5t-7 79.5v456h111v-456q0 -20 2 -41t13 -56t30 -60.5t57 -45t89 -19.5q43 0 76.5 13 t53 35t32.5 45.5t18.5 51.5t7 44.5t1.5 32.5v456z"/>
<glyph glyph-name="Udieresis" horiz-adv-x="782" unicode="Ü" d="M527 887q0 -24 -16.5 -40.5t-40.5 -16.5q-23 0 -39.5 16.5t-16.5 40.5q0 23 16.5 39.5t39.5 16.5q24 0 40.5 -16.5t16.5 -39.5zM362 887q0 -24 -16.5 -40.5t-40.5 -16.5q-23 0 -39.5 16.5t-16.5 40.5q0 23 16.5 39.5t39.5 16.5q24 0 40.5 -16.5t16.5 -39.5zM581 750h111 v-456q0 -41 -6.5 -79.5t-26.5 -82.5t-52 -76.5t-87.5 -54t-127.5 -21.5t-127.5 21.5t-88 54t-52.5 76.5t-27 82.5t-7 79.5v456h111v-456q0 -20 2 -41t13 -56t30 -60.5t57 -45t89 -19.5q43 0 76.5 13t53 35t32.5 45.5t18.5 51.5t7 44.5t1.5 32.5v456z"/>
<glyph glyph-name="Yacute" horiz-adv-x="689" unicode="Ý" d="M391 830h-86l87 166l97 -50zM584 750h135l-309 -452v-298h-111v298l-309 452h135l229 -350z"/>
<glyph glyph-name="agrave" horiz-adv-x="540" unicode="à" d="M320 584h-86l-98 116l97 50zM367 154v74h-126q-45 0 -71.5 -27t-26.5 -70q0 -33 27.5 -49.5t70.5 -16.5q64 0 95 28.5t31 60.5zM271 514q98 0 148.5 -48t50.5 -111v-355h-103v44q-46 -63 -140 -63q-92 0 -139.5 42.5t-47.5 111.5q0 87 54.5 132t132.5 45h140v43 q0 74 -96 74q-72 0 -118 -64l-71 64q77 85 189 85z"/>
<glyph glyph-name="aacute" horiz-adv-x="540" unicode="á" d="M330 584h-86l87 166l97 -50zM367 154v74h-126q-45 0 -71.5 -27t-26.5 -70q0 -33 27.5 -49.5t70.5 -16.5q64 0 95 28.5t31 60.5zM271 514q98 0 148.5 -48t50.5 -111v-355h-103v44q-46 -63 -140 -63q-92 0 -139.5 42.5t-47.5 111.5q0 87 54.5 132t132.5 45h140v43 q0 74 -96 74q-72 0 -118 -64l-71 64q77 85 189 85z"/>
<glyph glyph-name="acircumflex" horiz-adv-x="540" unicode="â" d="M367 154v74h-126q-45 0 -71.5 -27t-26.5 -70q0 -33 27.5 -49.5t70.5 -16.5q64 0 95 28.5t31 60.5zM271 514q98 0 148.5 -48t50.5 -111v-355h-103v44q-46 -63 -140 -63q-92 0 -139.5 42.5t-47.5 111.5q0 87 54.5 132t132.5 45h140v43q0 74 -96 74q-72 0 -118 -64l-71 64 q77 85 189 85zM328 750l107 -166h-86l-78 96l-78 -96h-86l107 166h114z"/>
<glyph glyph-name="adieresis" horiz-adv-x="540" unicode="ä" d="M407 675q0 -24 -16.5 -40.5t-40.5 -16.5q-23 0 -39.5 16.5t-16.5 40.5q0 23 16.5 39.5t39.5 16.5q24 0 40.5 -16.5t16.5 -39.5zM242 675q0 -24 -16.5 -40.5t-40.5 -16.5q-23 0 -39.5 16.5t-16.5 40.5q0 23 16.5 39.5t39.5 16.5q24 0 40.5 -16.5t16.5 -39.5zM367 154v74 h-126q-45 0 -71.5 -27t-26.5 -70q0 -33 27.5 -49.5t70.5 -16.5q64 0 95 28.5t31 60.5zM271 514q98 0 148.5 -48t50.5 -111v-355h-103v44q-46 -63 -140 -63q-92 0 -139.5 42.5t-47.5 111.5q0 87 54.5 132t132.5 45h140v43q0 74 -96 74q-72 0 -118 -64l-71 64q77 85 189 85z "/>
<glyph glyph-name="ccedilla" horiz-adv-x="526" unicode="ç" d="M271 -231q-38 0 -64 29l44 57q8 -11 21 -11q11 0 18.5 9t7.5 22t-7.5 22t-18.5 9q-13 0 -21 -11l-52 31l8 9q8 9 20.5 23.5t23.5 25.5q-91 17 -151 91t-60 171q0 110 75.5 188.5t181.5 78.5q112 0 189 -85l-71 -64q-48 64 -118 64q-64 0 -109 -53t-45 -129 q0 -75 45 -128.5t109 -53.5q71 0 118 65l71 -64q-72 -80 -180 -85l-29 -29q35 -2 58.5 -28t23.5 -63q0 -38 -25.5 -64.5t-62.5 -26.5z"/>
<glyph glyph-name="egrave" horiz-adv-x="566" unicode="è" d="M139 294h279q-13 59 -51.5 96.5t-88.5 37.5t-88.5 -38t-50.5 -96zM526 246v-37h-389q11 -62 53 -103.5t98 -41.5q72 0 117 65l71 -64q-77 -85 -188 -85q-107 0 -182.5 78t-75.5 188t72.5 188.5t175.5 78.5q91 0 159.5 -62.5t84.5 -156.5q4 -21 4 -48zM310 584h-86 l-98 116l97 50z"/>
<glyph glyph-name="eacute" horiz-adv-x="566" unicode="é" d="M139 294h279q-13 59 -51.5 96.5t-88.5 37.5t-88.5 -38t-50.5 -96zM526 246v-37h-389q11 -62 53 -103.5t98 -41.5q72 0 117 65l71 -64q-77 -85 -188 -85q-107 0 -182.5 78t-75.5 188t72.5 188.5t175.5 78.5q91 0 159.5 -62.5t84.5 -156.5q4 -21 4 -48zM330 584h-86l87 166 l97 -50z"/>
<glyph glyph-name="ecircumflex" horiz-adv-x="566" unicode="ê" d="M336 750l107 -166h-86l-78 96l-78 -96h-86l107 166h114zM139 294h279q-13 59 -51.5 96.5t-88.5 37.5t-88.5 -38t-50.5 -96zM526 246v-37h-389q11 -62 53 -103.5t98 -41.5q72 0 117 65l71 -64q-77 -85 -188 -85q-107 0 -182.5 78t-75.5 188t72.5 188.5t175.5 78.5 q91 0 159.5 -62.5t84.5 -156.5q4 -21 4 -48z"/>
<glyph glyph-name="edieresis" horiz-adv-x="566" unicode="ë" d="M139 294h279q-13 59 -51.5 96.5t-88.5 37.5t-88.5 -38t-50.5 -96zM526 246v-37h-389q11 -62 53 -103.5t98 -41.5q72 0 117 65l71 -64q-77 -85 -188 -85q-107 0 -182.5 78t-75.5 188t72.5 188.5t175.5 78.5q91 0 159.5 -62.5t84.5 -156.5q4 -21 4 -48zM408 675 q0 -24 -16.5 -40.5t-40.5 -16.5q-23 0 -39.5 16.5t-16.5 40.5q0 23 16.5 39.5t39.5 16.5q24 0 40.5 -16.5t16.5 -39.5zM243 675q0 -24 -16.5 -40.5t-40.5 -16.5q-23 0 -39.5 16.5t-16.5 40.5q0 23 16.5 39.5t39.5 16.5q24 0 40.5 -16.5t16.5 -39.5z"/>
<glyph glyph-name="igrave" horiz-adv-x="335" unicode="ì" d="M255 0h-103v494h103v-494zM254 584h-86l-98 116l97 50z"/>
<glyph glyph-name="iacute" horiz-adv-x="334" unicode="í" d="M156 584h-86l87 166l97 -50zM173 0h-103v494h103v-494z"/>
<glyph glyph-name="icircumflex" horiz-adv-x="478" unicode="î" d="M291 750l107 -166h-86l-78 96l-78 -96h-86l107 166h114zM285 0h-103v494h103v-494z"/>
<glyph glyph-name="idieresis" horiz-adv-x="428" unicode="ï" d="M348 675q0 -24 -16.5 -40.5t-40.5 -16.5q-23 0 -39.5 16.5t-16.5 40.5q0 23 16.5 39.5t39.5 16.5q24 0 40.5 -16.5t16.5 -39.5zM183 675q0 -24 -16.5 -40.5t-40.5 -16.5q-23 0 -39.5 16.5t-16.5 40.5q0 23 16.5 39.5t39.5 16.5q24 0 40.5 -16.5t16.5 -39.5zM250 0h-103 v494h103v-494z"/>
<glyph glyph-name="ograve" horiz-adv-x="604" unicode="ò" d="M356 584h-86l-98 116l97 50zM297 513q106 0 181.5 -78.5t75.5 -188.5t-75 -188t-182 -78t-182 78t-75 188t75.5 188.5t181.5 78.5zM297 428q-64 0 -109 -53t-45 -129q0 -75 45 -128.5t109 -53.5t109 53.5t45 128.5q0 76 -45 129t-109 53z"/>
<glyph glyph-name="oacute" horiz-adv-x="604" unicode="ó" d="M350 584h-86l87 166l97 -50zM297 513q106 0 181.5 -78.5t75.5 -188.5t-75 -188t-182 -78t-182 78t-75 188t75.5 188.5t181.5 78.5zM297 428q-64 0 -109 -53t-45 -129q0 -75 45 -128.5t109 -53.5t109 53.5t45 128.5q0 76 -45 129t-109 53z"/>
<glyph glyph-name="ocircumflex" horiz-adv-x="604" unicode="ô" d="M297 513q106 0 181.5 -78.5t75.5 -188.5t-75 -188t-182 -78t-182 78t-75 188t75.5 188.5t181.5 78.5zM297 428q-64 0 -109 -53t-45 -129q0 -75 45 -128.5t109 -53.5t109 53.5t45 128.5q0 76 -45 129t-109 53zM356 750l107 -166h-86l-78 96l-78 -96h-86l107 166h114z"/>
<glyph glyph-name="odieresis" horiz-adv-x="604" unicode="ö" d="M435 675q0 -24 -16.5 -40.5t-40.5 -16.5q-23 0 -39.5 16.5t-16.5 40.5q0 23 16.5 39.5t39.5 16.5q24 0 40.5 -16.5t16.5 -39.5zM270 675q0 -24 -16.5 -40.5t-40.5 -16.5q-23 0 -39.5 16.5t-16.5 40.5q0 23 16.5 39.5t39.5 16.5q24 0 40.5 -16.5t16.5 -39.5zM297 513 q106 0 181.5 -78.5t75.5 -188.5t-75 -188t-182 -78t-182 78t-75 188t75.5 188.5t181.5 78.5zM297 428q-64 0 -109 -53t-45 -129q0 -75 45 -128.5t109 -53.5t109 53.5t45 128.5q0 76 -45 129t-109 53z"/>
<glyph glyph-name="ugrave" horiz-adv-x="607" unicode="ù" d="M259 -20q19 0 30 1q-11 -1 -30 -1zM423 69v-69h104v494h-104v-286q0 -144 -134 -144zM173 208v286h-103v-286h103z"/>
<glyph glyph-name="uacute" horiz-adv-x="607" unicode="ú" d="M340 584h-86l87 166l97 -50zM70 208v286h103v-286q0 -76 26.5 -110t89.5 -34q134 0 134 144v286h104v-494h-104v69q-9 -34 -48.5 -59t-85.5 -29q-11 -1 -30 -1q-98 0 -143.5 56.5t-45.5 171.5z"/>
<glyph glyph-name="ucircumflex" horiz-adv-x="607" unicode="û" d="M355 750l107 -166h-86l-78 96l-78 -96h-86l107 166h114zM70 208v286h103v-286q0 -76 26.5 -110t89.5 -34q134 0 134 144v286h104v-494h-104v69q-9 -34 -48.5 -59t-85.5 -29q-11 -1 -30 -1q-98 0 -143.5 56.5t-45.5 171.5z"/>
<glyph glyph-name="udieresis" horiz-adv-x="607" unicode="ü" d="M436 671q0 -24 -16.5 -40.5t-40.5 -16.5q-23 0 -39.5 16.5t-16.5 40.5q0 23 16.5 39.5t39.5 16.5q24 0 40.5 -16.5t16.5 -39.5zM271 671q0 -24 -16.5 -40.5t-40.5 -16.5q-23 0 -39.5 16.5t-16.5 40.5q0 23 16.5 39.5t39.5 16.5q24 0 40.5 -16.5t16.5 -39.5zM70 208v286 h103v-286q0 -76 26.5 -110t89.5 -34q134 0 134 144v286h104v-494h-104v69q-9 -34 -48.5 -59t-85.5 -29q-11 -1 -30 -1q-98 0 -143.5 56.5t-45.5 171.5z"/>
<glyph glyph-name="yacute" horiz-adv-x="509" unicode="ý" d="M289 584h-86l87 166l97 -50zM489 494q-125 -296 -208 -494q-61 -144 -107.5 -210t-110.5 -66q-25 0 -55 12q-16 6 -38 18l31 90q17 -15 38 -20q10 -2 13 -2q20 0 38 15.5t34.5 45.5t27.5 54.5t25.5 63.5t19.5 51l-187 442h104l136 -324l135 324h104z"/>
<glyph glyph-name="quoteleft" horiz-adv-x="230" unicode="‘" d="M50 533q0 21 13 41l94 135h33l-36 -114q36 -19 36 -62q0 -29 -20 -49.5t-49 -20.5q-30 0 -50.5 20.5t-20.5 49.5z"/>
<glyph glyph-name="minus" horiz-adv-x="536" unicode="−" d="M446 205h-356v84h356v-84z"/>
</font>
</defs>
</svg>
